<svg width="14" height="14" viewBox="0 0 14 14" fill="none" xmlns="http://www.w3.org/2000/svg">
<path fill-rule="evenodd" clip-rule="evenodd" d="M9.86362 5.40368L6.81828 9.40368C6.69295 9.56835 6.49895 9.66568 6.29228 9.66701H6.28762C6.08295 9.66701 5.88962 9.57235 5.76295 9.41101L4.14162 7.33968C3.91495 7.05035 3.96562 6.63101 4.25562 6.40435C4.54495 6.17701 4.96495 6.22768 5.19162 6.51835L6.28028 7.90901L8.80295 4.59635C9.02562 4.30368 9.44362 4.24635 9.73762 4.46968C10.0303 4.69301 10.087 5.11101 9.86362 5.40368ZM7.00028 0.333679C3.31828 0.333679 0.333618 3.31835 0.333618 7.00035C0.333618 10.6817 3.31828 13.667 7.00028 13.667C10.6823 13.667 13.667 10.6817 13.667 7.00035C13.667 3.31835 10.6823 0.333679 7.00028 0.333679Z" fill="#EA7C69"/>
</svg>
